<svg version="1.1" viewBox="0 0 500 966" xmlns="http://www.w3.org/2000/svg" xmlns:xlink="http://www.w3.org/1999/xlink"><defs><linearGradient id="d"><stop stop-color="#f0f0f0" offset="0"/><stop stop-color="#b5b5b5" offset="1"/></linearGradient><linearGradient id="o" x1="49" x2="390" y1="23" y2="925" gradientUnits="userSpaceOnUse"><stop stop-color="#393939" offset="0"/><stop stop-color="#121212" offset="1"/></linearGradient><linearGradient id="n" x1="49" x2="390" y1="23" y2="925" gradientUnits="userSpaceOnUse"><stop stop-color="#6b6b6b" offset="0"/><stop offset="1"/></linearGradient><linearGradient id="m" x1="49" x2="390" y1="23" y2="925" gradientUnits="userSpaceOnUse"><stop stop-color="#acacac" offset="0"/><stop stop-color="#484848" offset="1"/></linearGradient><linearGradient id="l" x1="228" x2="228" y1="2.3" y2="959" gradientUnits="userSpaceOnUse"><stop stop-color="#9a9a9a" offset="0"/><stop stop-color="#323232" offset="1"/></linearGradient><clipPath id="v"><path d="m78 0c-43 0-78 35-78 78v356 142 288c0 56 45 101 101 101h298c56 0 101-45 101-101v-288-142-356c0-43-35-78-78-78h-343z" color="#000000" fill="url(#k)"/></clipPath><linearGradient id="k" x1="228" x2="228" y1="2.3" y2="959" gradientTransform="translate(1e-5)" gradientUnits="userSpaceOnUse"><stop stop-color="#d1d1d1" offset="0"/><stop stop-color="#a1a1a1" offset="1"/></linearGradient><filter id="t" color-interpolation-filters="sRGB"><feGaussianBlur stdDeviation="1.8325"/></filter><linearGradient id="j" x1="228" x2="228" y1="2.3" y2="959" gradientTransform="translate(1e-6,2e-5)" gradientUnits="userSpaceOnUse"><stop stop-color="#f1f1f1" offset="0"/><stop stop-color="#cacaca" offset="1"/></linearGradient><linearGradient id="i" x1="15" x2="419" y1="96" y2="961" gradientUnits="userSpaceOnUse"><stop stop-color="#505050" offset="0"/><stop stop-color="#262626" offset="1"/></linearGradient><filter id="s" color-interpolation-filters="sRGB"><feGaussianBlur stdDeviation="1.7066016"/></filter><linearGradient id="h" x1="263" x2="263" y1="45" y2="63" gradientTransform="translate(-59)" gradientUnits="userSpaceOnUse"><stop stop-color="#171717" offset="0"/><stop stop-color="#252525" offset="1"/></linearGradient><linearGradient id="g" x1="263" x2="263" y1="49" y2="59" gradientTransform="translate(-55)" gradientUnits="userSpaceOnUse"><stop stop-color="#424242" offset="0"/><stop stop-color="#2c2c2c" offset="1"/></linearGradient><linearGradient id="f" x1="335" x2="346" y1="52" y2="63" gradientUnits="userSpaceOnUse"><stop stop-color="#353535" offset="0"/><stop stop-color="#545454" offset="1"/></linearGradient><clipPath id="u"><path transform="matrix(1.6 0 0 1.6 -161 -48)" d="m349 57a8.3 8.3 0 1 1-17 0 8.3 8.3 0 1 1 17 0z"/></clipPath><filter id="r" x="-.25" y="-.23" width="1.5" height="1.5" color-interpolation-filters="sRGB"><feGaussianBlur stdDeviation="2.328125"/></filter><linearGradient id="e" x1="377" x2="379" y1="52" y2="55" gradientUnits="userSpaceOnUse"><stop stop-color="#513131" offset="0"/><stop stop-color="#335131" offset="1"/></linearGradient><filter id="q" x="-.48" y="-.48" width="2" height="2" color-interpolation-filters="sRGB"><feGaussianBlur stdDeviation="1.0006228"/></filter><linearGradient id="c" x1="102" x2="326" y1="56" y2="56" gradientUnits="userSpaceOnUse" xlink:href="#d"/><linearGradient id="b" x1="321" x2="321" y1="891" y2="954" gradientTransform="translate(-127 46)" gradientUnits="userSpaceOnUse"><stop stop-color="#252525" offset="0"/><stop stop-color="#e6e6e6" offset="1"/></linearGradient><linearGradient id="a" x1="860" x2="906" y1="-244" y2="-244" gradientTransform="translate(46 27)" gradientUnits="userSpaceOnUse"><stop stop-color="#373737" offset="0"/><stop stop-color="#474747" offset="1"/></linearGradient><filter id="p" x="-.097" y="-.16" height="1.3" color-interpolation-filters="sRGB"><feGaussianBlur stdDeviation="4.1919643"/></filter></defs><g><path d="m78 0c-43 0-78 35-78 78v356 142 288c0 56 45 101 101 101h298c56 0 101-45 101-101v-288-142-356c0-43-35-78-78-78h-343z" color="#000000" fill="url(#l)"/><path d="m78 0c-43 0-78 35-78 78v356 142 288c0 56 45 101 101 101h298c56 0 101-45 101-101v-288-142-356c0-43-35-78-78-78h-343z" clip-path="url(#v)" color="#000000" fill="none" filter="url(#t)" stroke="#000" stroke-width="2"/><path d="m78 0c-43 0-78 35-78 78v356 142 288c0 37 20 69 50 87-28-18-46-49-46-85v-288-142-356c0-43 35-78 78-78h343c14 0 27 3.8 39 10-12-7.9-27-12-42-12h-343z" color="#000000" fill="url(#j)"/><path d="m486 34c7.2 12 11 26 11 41v356 142 288c0 56-45 101-101 101h-298c-35 0-65-17-83-43 18 28 49 47 86 47h298c56 0 101-45 101-101v-288-142-356c0-17-5.1-32-14-44z" color="#000000" fill="url(#i)"/><path d="m77 27c-29 0-53 24-53 53v779c0 45 36 81 81 81h290c45 0 81-36 81-81v-779c0-29-24-53-53-53z" color="#000000" fill="none" filter="url(#s)" stroke="url(#m)" stroke-width="18"/><path d="m77 27c-29 0-53 24-53 53v779c0 45 36 81 81 81h290c45 0 81-36 81-81v-779c0-29-24-53-53-53z" color="#000000" fill="url(#o)" stroke="url(#n)" stroke-width="2.5"/><rect x="193" y="45" width="114" height="18" ry="6.1" color="#000000" fill="url(#h)"/><rect x="196" y="49" width="108" height="10" ry="5.1" color="#000000" fill="url(#g)"/><g transform="translate(-.91)" stroke="#818181" stroke-width=".5"><path transform="translate(-.25 -.63)" d="m204 55a2.1 2.1 0 1 1-4.2 0 2.1 2.1 0 1 1 4.2 0z"/><path transform="translate(6.3 -.63)" d="m204 55a2.1 2.1 0 1 1-4.2 0 2.1 2.1 0 1 1 4.2 0z"/><path transform="translate(13 -.63)" d="m204 55a2.1 2.1 0 1 1-4.2 0 2.1 2.1 0 1 1 4.2 0z"/><path transform="translate(20 -.63)" d="m204 55a2.1 2.1 0 1 1-4.2 0 2.1 2.1 0 1 1 4.2 0z"/><path transform="translate(26 -.63)" d="m204 55a2.1 2.1 0 1 1-4.2 0 2.1 2.1 0 1 1 4.2 0z"/><path transform="translate(33 -.63)" d="m204 55a2.1 2.1 0 1 1-4.2 0 2.1 2.1 0 1 1 4.2 0z"/><path transform="translate(39 -.63)" d="m204 55a2.1 2.1 0 1 1-4.2 0 2.1 2.1 0 1 1 4.2 0z"/><path transform="translate(46 -.63)" d="m204 55a2.1 2.1 0 1 1-4.2 0 2.1 2.1 0 1 1 4.2 0z"/><path transform="translate(52 -.63)" d="m204 55a2.1 2.1 0 1 1-4.2 0 2.1 2.1 0 1 1 4.2 0z"/><path transform="translate(59 -.63)" d="m204 55a2.1 2.1 0 1 1-4.2 0 2.1 2.1 0 1 1 4.2 0z"/><path transform="translate(66 -.63)" d="m204 55a2.1 2.1 0 1 1-4.2 0 2.1 2.1 0 1 1 4.2 0z"/><path transform="translate(72 -.63)" d="m204 55a2.1 2.1 0 1 1-4.2 0 2.1 2.1 0 1 1 4.2 0z"/><path transform="translate(79 -.63)" d="m204 55a2.1 2.1 0 1 1-4.2 0 2.1 2.1 0 1 1 4.2 0z"/><path transform="translate(85 -.63)" d="m204 55a2.1 2.1 0 1 1-4.2 0 2.1 2.1 0 1 1 4.2 0z"/><path transform="translate(92 -.63)" d="m204 55a2.1 2.1 0 1 1-4.2 0 2.1 2.1 0 1 1 4.2 0z"/><path transform="translate(99 -.63)" d="m204 55a2.1 2.1 0 1 1-4.2 0 2.1 2.1 0 1 1 4.2 0z"/></g><path transform="matrix(1.6 0 0 1.6 -159 -37)" d="m349 57a8.3 8.3 0 1 1-17 0 8.3 8.3 0 1 1 17 0z" fill="url(#f)"/><path transform="translate(2.2 11)" d="m375 29c-7.2 0-13 5.8-13 13 0 5 2.8 9.3 6.9 11-2.4-2.4-3.9-5.7-3.9-9.3 0-7.2 5.8-13 13-13 2.2 0 4.3 0.57 6.2 1.6-2.3-2.3-5.6-3.7-9.1-3.7z" clip-path="url(#u)" filter="url(#r)"/><path transform="matrix(.9 0 0 .9 36 4.9)" d="m382 53a4.2 4.2 0 1 1-8.5 0 4.2 4.2 0 1 1 8.5 0z" fill="#414141"/><path transform="translate(-.88 -.95)" d="m380 53a1.9 1.9 0 1 1-3.8 0 1.9 1.9 0 1 1 3.8 0z" fill="url(#e)"/><path transform="translate(-.51 -.88)" d="m116 55a8 8 0 1 1-16 0 8 8 0 1 1 16 0z" fill="#3b3b3b" fill-opacity=".2"/><rect x="122" y="48" width="24" height="13" ry="6.5" color="#000000" fill="#3b3b3b" fill-opacity=".2"/><path transform="translate(0 -.063)" d="m131 54a2.5 2.5 0 1 1-5.1 0 2.5 2.5 0 1 1 5.1 0z" fill="#40294d" fill-opacity=".32" filter="url(#q)"/><g transform="matrix(.66 0 0 .66 109 66)" fill="url(#c)"><path d="m102 61h8.6c-0.077 2.8 0.15 5.2 2 5.8 0.74 0.2 1.3 0.089 2-0.048 0.8-0.21 1.3-0.57 1.7-1 0.35-0.48 0.47-1 0.64-1.5 0.29-1.4-0.31-2.4-1.5-3.3-5.1-4.6-13-4.8-13-14 0.1-5.6 4.1-8.3 11-8.6 10 0.045 12 4.6 11 10h-8.1c0.1-2.5-0.16-4.7-2.8-4.8-2-7e-3 -2.3 1.1-2.8 2-0.32 2.5 0.81 3 1.7 3.8 5.2 3.8 14 5.3 13 13 0.11 6.4-3.7 9.6-11 9.6-5.5 0.013-7.8-1.1-9.5-2.6-2-2-2.8-4-2.5-9.2z"/><path d="m139 72h-8.7l5.9-32h14l6 32h-8.9l-4.2-29z"/><path d="m163 72 0.9-32h13l4 25 4.1-25h13l0.9 32h-8.3l-0.27-29-5.3 29h-8.3l-5.4-29-0.45 29z"/><path d="m206 61h8.6c-0.077 2.8 0.15 5.2 2 5.8 0.74 0.2 1.3 0.089 2-0.048 0.8-0.21 1.3-0.57 1.7-1 0.35-0.48 0.47-1 0.64-1.5 0.29-1.4-0.31-2.4-1.5-3.3-5.1-4.6-13-4.8-13-14 0.1-5.6 4.1-8.3 11-8.6 10 0.045 12 4.6 11 10h-8.1c0.1-2.5-0.16-4.7-2.8-4.8-2-7e-3 -2.3 1.1-2.8 2-0.32 2.5 0.81 3 1.7 3.8 5.2 3.8 14 5.3 13 13 0.11 6.4-3.7 9.6-11 9.6-5.5 0.013-7.8-1.1-9.5-2.6-2-2-2.8-4-2.5-9.2z"/><path d="m245 40h-8.2v24c0.85 6.6 4.6 9 10 9 1.2-0.077 2.3-0.07 3.5-0.065 5.6-0.19 8.9-3.8 9.1-9.4v-24h-8.4v23c0.055 0.88 0.046 1.7-0.048 2.3-0.089 1.1-0.69 1.7-1.5 2.2-0.84 0.38-1.8 0.36-2.6 0.083-0.93-0.23-1.2-0.84-1.6-1.6-0.36-1.1-0.41-2.6-0.36-4.3z"/><path d="m268 72v-32h12l7.6 25v-25h7.6v32h-11l-8-26v26z"/><path d="m318 50h7.9c0.065-6.5-1.9-12-11-11-8.7-0.33-12 4.1-12 12v12c-4e-3 6.8 5 9 11 8.9 7.5 0.45 11-2.5 11-8.6v-9.7h-11v4.7h3v5c-0.069 2.5-1.2 3.3-2.8 3.3-2.5 0.2-3.2-1.2-3.5-2.8v-16c0.2-2.3 1.1-3.8 3.5-3.5 1.3 0.13 2.7 0.25 3.1 2.8z"/></g><rect x="43" y="141" width="414" height="690" rx="6.1" ry="6.1" color="#000000"/><rect x="198" y="852" width="103" height="64" rx="18" ry="20" color="#000000" filter="url(#p)"/><g transform="translate(28 -46)"><rect x="171" y="899" width="103" height="64" rx="18" ry="20" color="#000000" fill="url(#b)"/><path d="m188 899c-9.8 0-18 8.8-18 20v1.9c0-11 7.9-20 18-20h68c9.8 0 18 8.7 18 20v-1.9c0-11-7.9-20-18-20h-68z" color="#000000" fill="#6f6f6f"/><rect transform="rotate(90)" x="905" y="-265" width="49" height="86" rx="8.5" ry="8.7" color="#000000" fill="url(#a)"/></g><path d="m100 872v19h2.5v-17h32v17h2.5v-19h-0.94-1.5-32-0.72-1.8z" color="#000000" fill="#969696"/><rect transform="rotate(-90)" x="-882" y="108" width="2.5" height="21" color="#000000" fill="#969696"/><rect transform="rotate(-90)" x="-889" y="108" width="2.5" height="21" color="#000000" fill="#969696"/><path d="m380 873-13 5.1 13 5.1v-4.1h10v0.031h1.2c3.7 0 6.7 3 6.7 6.7s-3 6.7-6.7 6.7h-0.66-19v2.5h19 0.66c5 0 9.2-4.1 9.2-9.1s-4.1-9.1-9.2-9.1h-0.66-0.59-10v-3.7z" color="#000000" fill="#969696"/></g></svg>
